<?xml version="1.0" encoding="UTF-8" standalone="no"?>
<!-- Created with Inkscape (http://www.inkscape.org/) -->

<svg
   xmlns:dc="http://purl.org/dc/elements/1.1/"
   xmlns:cc="http://creativecommons.org/ns#"
   xmlns:rdf="http://www.w3.org/1999/02/22-rdf-syntax-ns#"
   xmlns:svg="http://www.w3.org/2000/svg"
   xmlns="http://www.w3.org/2000/svg"
   xmlns:xlink="http://www.w3.org/1999/xlink"
   xmlns:sodipodi="http://sodipodi.sourceforge.net/DTD/sodipodi-0.dtd"
   xmlns:inkscape="http://www.inkscape.org/namespaces/inkscape"
   width="16"
   height="16"
   id="svg2"
   sodipodi:version="0.32"
   inkscape:version="0.48.1 r9760"
   version="1.0"
   sodipodi:docname="avatar-default-symbolic.svg"
   inkscape:output_extension="org.inkscape.output.svg.inkscape">
  <defs
     id="defs4">
    <linearGradient
       id="linearGradient3171"
       inkscape:collect="always">
      <stop
         id="stop3173"
         offset="0"
         style="stop-color:#000000;stop-opacity:1;" />
      <stop
         id="stop3175"
         offset="1"
         style="stop-color:#000000;stop-opacity:0;" />
    </linearGradient>
    <linearGradient
       inkscape:collect="always"
       xlink:href="#linearGradient3171"
       id="linearGradient3342"
       gradientUnits="userSpaceOnUse"
       x1="4.9375"
       y1="11"
       x2="8"
       y2="11" />
    <linearGradient
       id="linearGradient3266"
       inkscape:collect="always">
      <stop
         id="stop3268"
         offset="0"
         style="stop-color:#505050;stop-opacity:1;" />
      <stop
         id="stop3270"
         offset="1"
         style="stop-color:#505050;stop-opacity:0;" />
    </linearGradient>
    <linearGradient
       inkscape:collect="always"
       xlink:href="#linearGradient3266"
       id="linearGradient3340"
       gradientUnits="userSpaceOnUse"
       gradientTransform="translate(2,0)"
       x1="3.8890872"
       y1="15.656685"
       x2="4.3288512"
       y2="12.842732" />
    <linearGradient
       inkscape:collect="always"
       xlink:href="#linearGradient3242"
       id="linearGradient3338"
       gradientUnits="userSpaceOnUse"
       x1="3.5"
       y1="14.03125"
       x2="3.5"
       y2="7.9958577" />
    <linearGradient
       id="linearGradient3242">
      <stop
         id="stop3244"
         offset="0"
         style="stop-color:#505050;stop-opacity:1;" />
      <stop
         style="stop-color:#a7a7a7;stop-opacity:1;"
         offset="0.5"
         id="stop3260" />
      <stop
         style="stop-color:#ffffff;stop-opacity:1;"
         offset="0.69999999"
         id="stop3250" />
      <stop
         id="stop3246"
         offset="1"
         style="stop-color:#c8c8c8;stop-opacity:1;" />
    </linearGradient>
    <linearGradient
       inkscape:collect="always"
       xlink:href="#linearGradient3242"
       id="linearGradient3336"
       gradientUnits="userSpaceOnUse"
       x1="7.6126604"
       y1="14.756505"
       x2="5.5251265"
       y2="7.243495" />
    <inkscape:perspective
       sodipodi:type="inkscape:persp3d"
       inkscape:vp_x="0 : 11 : 1"
       inkscape:vp_y="0 : 1000 : 0"
       inkscape:vp_z="22 : 11 : 1"
       inkscape:persp3d-origin="11 : 7.3333333 : 1"
       id="perspective23" />
    <linearGradient
       id="ShadowGradient">
      <stop
         style="stop-color:#000000;stop-opacity:1;"
         offset="0"
         id="stop3393" />
      <stop
         style="stop-color:#000000;stop-opacity:0;"
         offset="1"
         id="stop3395" />
    </linearGradient>
    <linearGradient
       id="StandardGradient">
      <stop
         style="stop-color:#000000;stop-opacity:1;"
         offset="0"
         id="stop3389" />
      <stop
         style="stop-color:#646464;stop-opacity:1;"
         offset="1"
         id="stop3391" />
    </linearGradient>
    <linearGradient
       inkscape:collect="always"
       xlink:href="#StandardGradient"
       id="linearGradient3381"
       x1="9.9375"
       y1="3"
       x2="9.9375"
       y2="19.017569"
       gradientUnits="userSpaceOnUse" />
    <linearGradient
       inkscape:collect="always"
       xlink:href="#StandardGradient"
       id="linearGradient3782"
       x1="9.75"
       y1="5"
       x2="9.75"
       y2="19.055693"
       gradientUnits="userSpaceOnUse"
       gradientTransform="translate(0,-1)" />
    <linearGradient
       inkscape:collect="always"
       xlink:href="#StandardGradient"
       id="linearGradient2400"
       gradientUnits="userSpaceOnUse"
       gradientTransform="translate(-9,10)"
       x1="9.75"
       y1="5"
       x2="9.75"
       y2="19.055693" />
    <linearGradient
       inkscape:collect="always"
       xlink:href="#StandardGradient"
       id="linearGradient3174"
       gradientUnits="userSpaceOnUse"
       gradientTransform="matrix(0.7071068,0.7071068,-0.7071068,0.7071068,0.8856249,4.1536343)"
       x1="9.75"
       y1="5"
       x2="9.75"
       y2="19.055693" />
    <linearGradient
       inkscape:collect="always"
       xlink:href="#StandardGradient"
       id="linearGradient3178"
       gradientUnits="userSpaceOnUse"
       gradientTransform="matrix(0,1,-1,0,12.009822,7.0098219)"
       x1="9.75"
       y1="5"
       x2="9.75"
       y2="19.055693" />
    <linearGradient
       inkscape:collect="always"
       xlink:href="#StandardGradient"
       id="linearGradient3182"
       gradientUnits="userSpaceOnUse"
       gradientTransform="matrix(-0.7071068,0.7071068,-0.7071068,-0.7071068,17.856188,16.895447)"
       x1="9.75"
       y1="5"
       x2="9.75"
       y2="19.055693" />
    <linearGradient
       inkscape:collect="always"
       xlink:href="#StandardGradient"
       id="linearGradient3186"
       gradientUnits="userSpaceOnUse"
       gradientTransform="matrix(-1,0,0,-1,15,28.019644)"
       x1="9.75"
       y1="5"
       x2="9.75"
       y2="19.055693" />
    <linearGradient
       inkscape:collect="always"
       xlink:href="#StandardGradient"
       id="linearGradient3190"
       gradientUnits="userSpaceOnUse"
       gradientTransform="matrix(-0.7071068,-0.7071068,0.7071068,-0.7071068,5.1143752,33.866009)"
       x1="9.75"
       y1="5"
       x2="9.75"
       y2="19.055693" />
    <linearGradient
       inkscape:collect="always"
       xlink:href="#StandardGradient"
       id="linearGradient3194"
       gradientUnits="userSpaceOnUse"
       gradientTransform="matrix(0,-1,1,0,-6.0098215,31.009821)"
       x1="9.75"
       y1="5"
       x2="9.75"
       y2="19.055693" />
    <linearGradient
       inkscape:collect="always"
       xlink:href="#StandardGradient"
       id="linearGradient3198"
       gradientUnits="userSpaceOnUse"
       gradientTransform="matrix(0.7071068,-0.7071068,0.7071068,0.7071068,-11.856186,21.124197)"
       x1="9.75"
       y1="5"
       x2="9.75"
       y2="19.055693" />
    <linearGradient
       inkscape:collect="always"
       xlink:href="#StandardGradient"
       id="linearGradient3224"
       gradientUnits="userSpaceOnUse"
       gradientTransform="matrix(0.7071068,0.7071068,-0.7071068,0.7071068,11.292893,-6.263456)"
       x1="9.75"
       y1="5"
       x2="9.75"
       y2="19.055693" />
    <linearGradient
       inkscape:collect="always"
       xlink:href="#StandardGradient"
       id="linearGradient2407"
       gradientUnits="userSpaceOnUse"
       gradientTransform="translate(-22,-5)"
       x1="9.75"
       y1="5"
       x2="9.75"
       y2="19.055693" />
    <linearGradient
       inkscape:collect="always"
       xlink:href="#StandardGradient"
       id="linearGradient3228"
       x1="6.7010484"
       y1="1"
       x2="6.7010484"
       y2="15.001111"
       gradientUnits="userSpaceOnUse" />
    <linearGradient
       inkscape:collect="always"
       xlink:href="#linearGradient3171"
       id="linearGradient2630"
       gradientUnits="userSpaceOnUse"
       x1="4.9375"
       y1="11"
       x2="8"
       y2="11"
       gradientTransform="translate(4.8043455e-2,-1.0546018)" />
    <linearGradient
       inkscape:collect="always"
       xlink:href="#linearGradient3266"
       id="linearGradient2633"
       gradientUnits="userSpaceOnUse"
       gradientTransform="translate(2.0480435,-1.0546018)"
       x1="3.8890872"
       y1="15.656685"
       x2="4.3288512"
       y2="12.842732" />
    <linearGradient
       inkscape:collect="always"
       xlink:href="#linearGradient3242"
       id="linearGradient2636"
       gradientUnits="userSpaceOnUse"
       x1="3.5"
       y1="14.03125"
       x2="3.5"
       y2="7.9958577"
       gradientTransform="translate(4.8043455e-2,-1.0546018)" />
    <linearGradient
       inkscape:collect="always"
       xlink:href="#linearGradient3242"
       id="linearGradient2639"
       gradientUnits="userSpaceOnUse"
       x1="7.6126604"
       y1="14.756505"
       x2="5.5251265"
       y2="7.243495"
       gradientTransform="translate(4.8043455e-2,-1.0546018)" />
    <linearGradient
       inkscape:collect="always"
       xlink:href="#linearGradient3242"
       id="linearGradient2641"
       gradientUnits="userSpaceOnUse"
       gradientTransform="translate(-2,-2.9999999)"
       x1="7.6126604"
       y1="14.756505"
       x2="5.5251265"
       y2="7.243495" />
    <linearGradient
       inkscape:collect="always"
       xlink:href="#StandardGradient"
       id="linearGradient3421"
       x1="8.4375"
       y1="1"
       x2="8.4375"
       y2="15.007554"
       gradientUnits="userSpaceOnUse" />
    <linearGradient
       inkscape:collect="always"
       xlink:href="#StandardGradient"
       id="linearGradient2433"
       gradientUnits="userSpaceOnUse"
       x1="8.4375"
       y1="1"
       x2="8.4375"
       y2="15.007554"
       gradientTransform="matrix(1.2397314,0,0,1,-2.1450456,0)" />
    <linearGradient
       inkscape:collect="always"
       xlink:href="#StandardGradient"
       id="linearGradient2435"
       gradientUnits="userSpaceOnUse"
       x1="8.4375"
       y1="1"
       x2="8.4375"
       y2="15.007554"
       gradientTransform="matrix(1.3065009,0,0,1,-3.6644889,0)" />
    <linearGradient
       inkscape:collect="always"
       xlink:href="#StandardGradient"
       id="linearGradient2437"
       gradientUnits="userSpaceOnUse"
       x1="8.4375"
       y1="1"
       x2="8.4375"
       y2="15.007554"
       gradientTransform="matrix(1.315615,0,0,1,-4.7200494,0)" />
    <inkscape:perspective
       id="perspective2849"
       inkscape:persp3d-origin="0.5 : 0.33333333 : 1"
       inkscape:vp_z="1 : 0.5 : 1"
       inkscape:vp_y="0 : 1000 : 0"
       inkscape:vp_x="0 : 0.5 : 1"
       sodipodi:type="inkscape:persp3d" />
    <linearGradient
       inkscape:collect="always"
       xlink:href="#StandardGradient"
       id="linearGradient2898"
       gradientUnits="userSpaceOnUse"
       x1="8.4375"
       y1="1"
       x2="8.4375"
       y2="15.007554" />
    <inkscape:perspective
       id="perspective2917"
       inkscape:persp3d-origin="0.5 : 0.33333333 : 1"
       inkscape:vp_z="1 : 0.5 : 1"
       inkscape:vp_y="0 : 1000 : 0"
       inkscape:vp_x="0 : 0.5 : 1"
       sodipodi:type="inkscape:persp3d" />
    <linearGradient
       inkscape:collect="always"
       xlink:href="#linearGradient4081"
       id="linearGradient3538"
       gradientUnits="userSpaceOnUse"
       gradientTransform="translate(1,0)"
       x1="16.5"
       y1="19.542921"
       x2="16.5"
       y2="2.5" />
    <linearGradient
       id="linearGradient4081">
      <stop
         style="stop-color:#aaaaaa;stop-opacity:1;"
         offset="0"
         id="stop4083" />
      <stop
         style="stop-color:#f0f0f0;stop-opacity:1;"
         offset="1"
         id="stop4085" />
    </linearGradient>
    <linearGradient
       inkscape:collect="always"
       xlink:href="#linearGradient4081"
       id="linearGradient3542"
       gradientUnits="userSpaceOnUse"
       gradientTransform="translate(-4,-3)"
       x1="10.50519"
       y1="15.28125"
       x2="10.50519"
       y2="6.7458849" />
    <linearGradient
       id="linearGradient2926">
      <stop
         style="stop-color:#aaaaaa;stop-opacity:1;"
         offset="0"
         id="stop2928" />
      <stop
         style="stop-color:#f0f0f0;stop-opacity:1;"
         offset="1"
         id="stop2930" />
    </linearGradient>
    <linearGradient
       inkscape:collect="always"
       xlink:href="#linearGradient4081"
       id="linearGradient3540"
       gradientUnits="userSpaceOnUse"
       gradientTransform="translate(-4,-3)"
       x1="14.524625"
       y1="17.41902"
       x2="14.524625"
       y2="4.625" />
    <linearGradient
       id="linearGradient2933">
      <stop
         style="stop-color:#aaaaaa;stop-opacity:1;"
         offset="0"
         id="stop2935" />
      <stop
         style="stop-color:#f0f0f0;stop-opacity:1;"
         offset="1"
         id="stop2937" />
    </linearGradient>
    <linearGradient
       y2="2.5"
       x2="16.5"
       y1="19.542921"
       x1="16.5"
       gradientTransform="translate(-4,-3)"
       gradientUnits="userSpaceOnUse"
       id="linearGradient2942"
       xlink:href="#linearGradient4081"
       inkscape:collect="always" />
    <linearGradient
       inkscape:collect="always"
       xlink:href="#linearGradient4081"
       id="linearGradient2945"
       gradientUnits="userSpaceOnUse"
       gradientTransform="translate(-4,-3)"
       x1="16.5"
       y1="19.542921"
       x2="16.5"
       y2="2.5" />
    <linearGradient
       inkscape:collect="always"
       xlink:href="#linearGradient4081"
       id="linearGradient2948"
       gradientUnits="userSpaceOnUse"
       gradientTransform="matrix(1,0,0,0.94352368,-4,-2.3752307)"
       x1="16.5"
       y1="19.542921"
       x2="16.5"
       y2="2.5" />
    <linearGradient
       inkscape:collect="always"
       xlink:href="#StandardGradient"
       id="linearGradient2950"
       gradientUnits="userSpaceOnUse"
       x1="8.4375"
       y1="1"
       x2="8.4375"
       y2="15.007554" />
    <linearGradient
       inkscape:collect="always"
       xlink:href="#StandardGradient"
       id="linearGradient3729"
       gradientUnits="userSpaceOnUse"
       x1="8.4375"
       y1="1"
       x2="8.4375"
       y2="15.007554"
       gradientTransform="translate(0,1)" />
    <linearGradient
       inkscape:collect="always"
       xlink:href="#StandardGradient"
       id="linearGradient3731"
       gradientUnits="userSpaceOnUse"
       x1="8.4375"
       y1="1"
       x2="8.4375"
       y2="15.007554" />
    <inkscape:perspective
       id="perspective3777"
       inkscape:persp3d-origin="0.5 : 0.33333333 : 1"
       inkscape:vp_z="1 : 0.5 : 1"
       inkscape:vp_y="0 : 1000 : 0"
       inkscape:vp_x="0 : 0.5 : 1"
       sodipodi:type="inkscape:persp3d" />
    <linearGradient
       id="StandardGradient-1"
       gradientTransform="scale(1.1467263,0.8720476)"
       x1="7.1904788"
       y1="6.9551144"
       x2="7.1904788"
       y2="18.319494"
       gradientUnits="userSpaceOnUse">
      <stop
         style="stop-color:#000000;stop-opacity:0.86274511;"
         offset="0"
         id="stop3280" />
      <stop
         style="stop-color:#000000;stop-opacity:0.47058824;"
         offset="1"
         id="stop3282" />
    </linearGradient>
    <linearGradient
       y2="18.319494"
       x2="7.1904788"
       y1="6.9551144"
       x1="7.1904788"
       gradientTransform="matrix(1.1467263,0,0,0.8720476,2.5196744,8.5383193)"
       gradientUnits="userSpaceOnUse"
       id="linearGradient3785"
       xlink:href="#StandardGradient-1"
       inkscape:collect="always" />
    <linearGradient
       inkscape:collect="always"
       xlink:href="#StandardGradient-1"
       id="linearGradient3804"
       gradientUnits="userSpaceOnUse"
       x1="8.4375"
       y1="1"
       x2="8.4375"
       y2="15.007554" />
    <linearGradient
       inkscape:collect="always"
       xlink:href="#StandardGradient-1"
       id="linearGradient3808"
       gradientUnits="userSpaceOnUse"
       x1="8.4375"
       y1="1"
       x2="8.4375"
       y2="15.007554"
       gradientTransform="translate(0,1)" />
    <linearGradient
       inkscape:collect="always"
       xlink:href="#StandardGradient-1"
       id="linearGradient3812"
       gradientUnits="userSpaceOnUse"
       x1="8.4375"
       y1="1"
       x2="8.4375"
       y2="15.007554" />
    <linearGradient
       inkscape:collect="always"
       xlink:href="#StandardGradient-1"
       id="linearGradient3817"
       gradientUnits="userSpaceOnUse"
       x1="8.4375"
       y1="1"
       x2="8.4375"
       y2="15.007554"
       gradientTransform="translate(-20,0)" />
    <clipPath
       clipPathUnits="userSpaceOnUse"
       id="clipPath3824">
      <path
         style="fill:#ff00ff;fill-opacity:1;stroke:none;display:inline"
         d="m -20,0 0,16 16,0 0,-16 -16,0 z M -7.625,1 C -5.995915,2.9288438 -5,5.3432918 -5,8 c 1e-6,2.708425 -1.032388,5.178784 -2.71875,7.125 l -1.5,-1.25 c 1.364366,-1.613056 2.1875,-3.651801 2.1875,-5.875 0,-2.1639699 -0.76332,-4.1574263 -2.0625,-5.75 L -7.625,1 z M -9.8125,2.84375 C -8.662551,4.2737473 -8,6.0683029 -8,8 c 0,1.9878056 -0.722863,3.803569 -1.9375,5.25 l -1.5,-1.28125 C -10.539955,10.861821 -10,9.5005507 -10,8 -10,6.5562172 -10.506676,5.24065 -11.34375,4.15625 l 1.53125,-1.3125 z m -5.1875,1.125 0,8 L -17,10 -18.5,10 C -18.777,10 -19,9.777 -19,9.5 l 0,-3 C -19,6.223 -18.777,6 -18.5,6 l 1.5,0 2,-2.03125 z M -12.0625,4.75 C -11.393055,5.6663669 -11,6.8041149 -11,8 c 0,1.2594208 -0.420217,2.432325 -1.15625,3.375 L -13.6875,10.0625 C -13.263995,9.4700266 -13,8.7691247 -13,8 -13,7.2815285 -13.219346,6.6300346 -13.59375,6.0625 L -12.0625,4.75 z"
         id="path3826" />
    </clipPath>
    <inkscape:perspective
       id="perspective2945"
       inkscape:persp3d-origin="0.5 : 0.33333333 : 1"
       inkscape:vp_z="1 : 0.5 : 1"
       inkscape:vp_y="0 : 1000 : 0"
       inkscape:vp_x="0 : 0.5 : 1"
       sodipodi:type="inkscape:persp3d" />
    <linearGradient
       inkscape:collect="always"
       xlink:href="#StandardGradient-6"
       id="linearGradient3750"
       x1="11"
       y1="3"
       x2="11"
       y2="20.117243"
       gradientUnits="userSpaceOnUse" />
    <linearGradient
       id="StandardGradient-6"
       gradientTransform="matrix(0.9984539,0,0,0.9984539,-0.0459776,0.05767558)"
       x1="10.710332"
       y1="1.9963325"
       x2="10.710332"
       y2="18.974037"
       gradientUnits="userSpaceOnUse">
      <stop
         style="stop-color:#000000;stop-opacity:0.86274511;"
         offset="0"
         id="stop3277" />
      <stop
         style="stop-color:#000000;stop-opacity:0.47058824;"
         offset="1"
         id="stop3279" />
    </linearGradient>
    <linearGradient
       gradientTransform="matrix(0.77744586,0,0,0.77121526,-0.55489171,-1.3761043)"
       y2="20.117243"
       x2="11"
       y1="3"
       x1="11"
       gradientUnits="userSpaceOnUse"
       id="linearGradient2954"
       xlink:href="#StandardGradient-6"
       inkscape:collect="always" />
    <linearGradient
       inkscape:collect="always"
       xlink:href="#StandardGradient-6"
       id="linearGradient2953"
       gradientUnits="userSpaceOnUse"
       gradientTransform="matrix(0.77744586,0,0,0.77121526,-0.55489171,-0.3761043)"
       x1="11"
       y1="3"
       x2="11"
       y2="20.117243" />
    <linearGradient
       inkscape:collect="always"
       xlink:href="#StandardGradient-6"
       id="linearGradient2955"
       gradientUnits="userSpaceOnUse"
       gradientTransform="matrix(0.77744586,0,0,0.77121526,-0.55489171,-1.3761043)"
       x1="11"
       y1="3"
       x2="11"
       y2="20.117243" />
    <linearGradient
       inkscape:collect="always"
       xlink:href="#StandardGradient-6"
       id="linearGradient3732"
       gradientUnits="userSpaceOnUse"
       gradientTransform="matrix(0.77744586,0,0,0.77121526,-0.55489171,-0.3761043)"
       x1="11"
       y1="3"
       x2="11"
       y2="20.117243" />
    <linearGradient
       inkscape:collect="always"
       xlink:href="#StandardGradient-6"
       id="linearGradient3736"
       gradientUnits="userSpaceOnUse"
       gradientTransform="matrix(0.77744586,0,0,0.77121526,-0.55489171,-1.3761043)"
       x1="11"
       y1="3"
       x2="11"
       y2="20.117243" />
    <linearGradient
       inkscape:collect="always"
       xlink:href="#StandardGradient-6"
       id="linearGradient3741"
       gradientUnits="userSpaceOnUse"
       gradientTransform="matrix(0.77744586,0,0,0.77121526,-20.554892,-1.3761043)"
       x1="11"
       y1="3"
       x2="11"
       y2="20.117243" />
    <clipPath
       clipPathUnits="userSpaceOnUse"
       id="clipPath3748">
      <path
         style="fill:#ff00ff;fill-opacity:1;stroke:none;display:inline"
         d="m -20,0 0,16 16,0 0,-16 -16,0 z M -15.5,1.46875 -12,3.9375 -8.5,1.46875 -5,3.9375 -8.5,6.625 -5,8.96875 -12,14 -19,8.96875 -15.5,6.625 -19,3.9375 -15.5,1.46875 z"
         id="path3750" />
    </clipPath>
    <inkscape:perspective
       id="perspective2966"
       inkscape:persp3d-origin="0.5 : 0.33333333 : 1"
       inkscape:vp_z="1 : 0.5 : 1"
       inkscape:vp_y="0 : 1000 : 0"
       inkscape:vp_x="0 : 0.5 : 1"
       sodipodi:type="inkscape:persp3d" />
    <linearGradient
       inkscape:collect="always"
       xlink:href="#StandardGradient-6"
       id="linearGradient3752"
       x1="10.973592"
       y1="1.0816979"
       x2="10.973592"
       y2="8.9478464"
       gradientUnits="userSpaceOnUse" />
    <linearGradient
       inkscape:collect="always"
       xlink:href="#StandardGradient-6"
       id="linearGradient3754"
       x1="3.8554573"
       y1="7.1189685"
       x2="3.8554573"
       y2="15.007722"
       gradientUnits="userSpaceOnUse" />
    <linearGradient
       inkscape:collect="always"
       xlink:href="#StandardGradient-6"
       id="linearGradient3760"
       gradientUnits="userSpaceOnUse"
       x1="3.8554573"
       y1="7.1189685"
       x2="3.8554573"
       y2="15.007722" />
    <linearGradient
       inkscape:collect="always"
       xlink:href="#StandardGradient-6"
       id="linearGradient3765"
       gradientUnits="userSpaceOnUse"
       x1="3.8554573"
       y1="7.1189685"
       x2="3.8554573"
       y2="15.007722"
       gradientTransform="translate(0,1)" />
    <linearGradient
       inkscape:collect="always"
       xlink:href="#StandardGradient-6"
       id="linearGradient3771"
       gradientUnits="userSpaceOnUse"
       x1="3.8554573"
       y1="7.1189685"
       x2="3.8554573"
       y2="15.007722" />
    <linearGradient
       inkscape:collect="always"
       xlink:href="#StandardGradient-6"
       id="linearGradient3773"
       gradientUnits="userSpaceOnUse"
       gradientTransform="translate(0,1)"
       x1="3.8554573"
       y1="7.1189685"
       x2="3.8554573"
       y2="15.007722" />
    <linearGradient
       inkscape:collect="always"
       xlink:href="#StandardGradient-6"
       id="linearGradient3778"
       gradientUnits="userSpaceOnUse"
       x1="3.8554573"
       y1="7.1189685"
       x2="3.8554573"
       y2="15.007722" />
    <linearGradient
       inkscape:collect="always"
       xlink:href="#StandardGradient-6"
       id="linearGradient3790"
       gradientUnits="userSpaceOnUse"
       x1="3.8554573"
       y1="7.1189685"
       x2="3.8554573"
       y2="15.007722"
       gradientTransform="translate(0.01442091,-0.014421)" />
    <linearGradient
       inkscape:collect="always"
       xlink:href="#StandardGradient-6"
       id="linearGradient3796"
       gradientUnits="userSpaceOnUse"
       gradientTransform="translate(-19.985579,-0.014421)"
       x1="3.8554573"
       y1="7.1189685"
       x2="3.8554573"
       y2="15.007722" />
    <linearGradient
       inkscape:collect="always"
       xlink:href="#StandardGradient-6"
       id="linearGradient3798"
       gradientUnits="userSpaceOnUse"
       x1="10.973592"
       y1="1.0816979"
       x2="10.973592"
       y2="8.9478464"
       gradientTransform="translate(-20,0)" />
    <clipPath
       clipPathUnits="userSpaceOnUse"
       id="clipPath3806">
      <path
         style="fill:#ff00ff;fill-opacity:1;stroke:none;display:inline"
         d="m -20,0 0,16 16,0 0,-16 -16,0 z m 14.28125,1 c 0.1826931,0 0.3653865,0.084136 0.5,0.21875 0.269228,0.269228 0.269228,0.730773 0,1 L -8.03125,5 l 0,1.53125 a 0.52760556,0.52613824 0 0 1 -0.15625,0.375 L -10.15625,8.875 a 0.52760556,0.52613824 0 0 1 -0.0625,0.03125 l -2.6875,-2.6875 a 0.52760556,0.52613824 0 0 1 0,-0.03125 0.52760556,0.52613824 0 0 1 0.03125,-0.03125 l 1.96875,-1.96875 a 0.52760556,0.52613824 0 0 1 0.375,-0.15625 l 1.53125,0 2.78125,-2.8125 C -6.084136,1.084136 -5.9014431,1 -5.71875,1 z m -8.125,6.125 a 0.52760556,0.52613824 0 0 1 0.03125,0 l 2.6875,2.6875 a 0.52760556,0.52613824 0 0 1 0,0.03125 0.52760556,0.52613824 0 0 1 -0.03125,0.03125 L -13.125,11.84375 A 0.52760556,0.52613824 0 0 1 -13.5,12 l -1.53125,0 -2.78125,2.8125 c -0.269228,0.269228 -0.730772,0.269228 -1,0 -0.269228,-0.269228 -0.269228,-0.730773 0,-1 L -16,11.03125 -16,9.5 a 0.52760556,0.52613824 0 0 1 0.15625,-0.375 L -13.875,7.15625 A 0.52760556,0.52613824 0 0 1 -13.84375,7.125 z"
         id="path3808" />
    </clipPath>
    <linearGradient
       inkscape:collect="always"
       xlink:href="#StandardGradient-1"
       id="linearGradient3720"
       x1="7"
       y1="1"
       x2="7"
       y2="14.038404"
       gradientUnits="userSpaceOnUse" />
    <linearGradient
       inkscape:collect="always"
       xlink:href="#StandardGradient-1"
       id="linearGradient3726"
       gradientUnits="userSpaceOnUse"
       x1="7"
       y1="1"
       x2="7"
       y2="14.038404"
       gradientTransform="translate(0,1)" />
    <linearGradient
       inkscape:collect="always"
       xlink:href="#StandardGradient-1"
       id="linearGradient3728"
       gradientUnits="userSpaceOnUse"
       x1="7"
       y1="1"
       x2="7"
       y2="14.038404" />
    <linearGradient
       inkscape:collect="always"
       xlink:href="#StandardGradient-1"
       id="linearGradient3733"
       gradientUnits="userSpaceOnUse"
       x1="7"
       y1="1"
       x2="7"
       y2="14.038404"
       gradientTransform="translate(0,1)" />
    <linearGradient
       inkscape:collect="always"
       xlink:href="#StandardGradient-1"
       id="linearGradient3737"
       gradientUnits="userSpaceOnUse"
       x1="7"
       y1="1"
       x2="7"
       y2="14.038404" />
    <linearGradient
       inkscape:collect="always"
       xlink:href="#StandardGradient-1"
       id="linearGradient3742"
       gradientUnits="userSpaceOnUse"
       x1="7"
       y1="1"
       x2="7"
       y2="14.038404"
       gradientTransform="translate(-20,0)" />
    <clipPath
       clipPathUnits="userSpaceOnUse"
       id="clipPath3749">
      <path
         style="fill:#ff00ff;fill-opacity:1;stroke:none;display:inline"
         d="m -20,0 0,11 c 0,-0.554 0.446,-1 1,-1 l 1,0 c 0.554,0 1,0.446 1,1 l 0,2 c 0,0.554 -0.446,1 -1,1 l -1,0 c -0.554,0 -1,-0.446 -1,-1 l 0,3 16,0 0,-16 -16,0 z m 13,1 1,0 c 0.554,0 1,0.446 1,1 l 0,11 c 0,0.554 -0.446,1 -1,1 l -1,0 c -0.554,0 -1,-0.446 -1,-1 L -8,2 c 0,-0.554 0.446,-1 1,-1 z m -4,3 1,0 c 0.554,0 1,0.446 1,1 l 0,8 c 0,0.554 -0.446,1 -1,1 l -1,0 c -0.554,0 -1,-0.446 -1,-1 l 0,-8 c 0,-0.554 0.446,-1 1,-1 z m -4,3 1,0 c 0.554,0 1,0.446 1,1 l 0,5 c 0,0.554 -0.446,1 -1,1 l -1,0 c -0.554,0 -1,-0.446 -1,-1 l 0,-5 c 0,-0.554 0.446,-1 1,-1 z"
         id="path3751" />
    </clipPath>
    <clipPath
       clipPathUnits="userSpaceOnUse"
       id="clipPath3820">
      <path
         inkscape:connector-curvature="0"
         style="fill:#ff00ff;fill-opacity:1;stroke:none;display:inline"
         d="m -19.535739,2.999982 0,16 16.0000003,0 0,-16 -16.0000003,0 z m 6,1 4.0000003,0 c 0.554,0 1,0.446 1,1 l 0,4 1,0 c 0.554,0 1,0.446 1,1 l 0,6 c 0,0.554 -0.446,1 -1,1 l -8.0000003,0 c -0.554,0 -1,-0.446 -1,-1 l 0,-6 c 0,-0.554 0.446,-1 1,-1 l 1,0 0,-4 c 0,-0.554 0.446,-1 1,-1 z m 1,2 0,3 2,0 0,-3 -2,0 z"
         id="path3822" />
    </clipPath>
    <linearGradient
       inkscape:collect="always"
       xlink:href="#linearGradient4036"
       id="linearGradient3790-0"
       gradientUnits="userSpaceOnUse"
       gradientTransform="translate(-0.4642613,-2.999982)"
       x1="8.4642611"
       y1="3.9999821"
       x2="8.4642611"
       y2="17.038387" />
    <linearGradient
       gradientUnits="userSpaceOnUse"
       y2="17.924156"
       x2="11.640054"
       y1="4.0775533"
       x1="11.640054"
       id="linearGradient4036">
      <stop
         id="stop4038"
         offset="0"
         style="stop-color:#282828;stop-opacity:1;" />
      <stop
         id="stop4040"
         offset="1"
         style="stop-color:#787878;stop-opacity:1;" />
    </linearGradient>
    <linearGradient
       inkscape:collect="always"
       xlink:href="#linearGradient4036"
       id="linearGradient6070"
       gradientUnits="userSpaceOnUse"
       gradientTransform="translate(-0.4642616,-2.999982)"
       x1="8.4642611"
       y1="3.9999821"
       x2="8.4642611"
       y2="17.038387" />
    <linearGradient
       inkscape:collect="always"
       xlink:href="#linearGradient4036"
       id="linearGradient6074"
       gradientUnits="userSpaceOnUse"
       gradientTransform="translate(-0.4642616,-2.999982)"
       x1="8.4642611"
       y1="3.9999821"
       x2="8.4642611"
       y2="17.038387" />
    <linearGradient
       inkscape:collect="always"
       xlink:href="#StandardGradient-1-0"
       id="linearGradient3720-9"
       x1="7"
       y1="1"
       x2="7"
       y2="14.038404"
       gradientUnits="userSpaceOnUse" />
    <linearGradient
       id="StandardGradient-1-0"
       gradientTransform="scale(1.1467263,0.8720476)"
       x1="7.1904788"
       y1="6.9551144"
       x2="7.1904788"
       y2="18.319494"
       gradientUnits="userSpaceOnUse">
      <stop
         style="stop-color:#000000;stop-opacity:0.86274511;"
         offset="0"
         id="stop3280-6" />
      <stop
         style="stop-color:#000000;stop-opacity:0.47058824;"
         offset="1"
         id="stop3282-7" />
    </linearGradient>
    <linearGradient
       gradientTransform="translate(-4,0)"
       y2="14.038404"
       x2="7"
       y1="1"
       x1="7"
       gradientUnits="userSpaceOnUse"
       id="linearGradient3129"
       xlink:href="#StandardGradient-1-0"
       inkscape:collect="always" />
    <linearGradient
       y2="80"
       x2="56"
       y1="16"
       x1="56"
       gradientTransform="matrix(0.20617012,0,0,0.20617012,-1.8961661,-2.3085058)"
       gradientUnits="userSpaceOnUse"
       id="linearGradient3808-9"
       xlink:href="#StandardGradient-3"
       inkscape:collect="always" />
    <linearGradient
       id="StandardGradient-3"
       gradientTransform="scale(0.9219544,1.0846523)"
       x1="11.998966"
       y1="0.92195445"
       x2="11.998966"
       y2="19.387045"
       gradientUnits="userSpaceOnUse">
      <stop
         style="stop-color:#000000;stop-opacity:0.86274511;"
         offset="0"
         id="stop3283-5" />
      <stop
         style="stop-color:#000000;stop-opacity:0.47058824;"
         offset="1"
         id="stop2651-2" />
    </linearGradient>
  </defs>
  <sodipodi:namedview
     id="base"
     pagecolor="#ffffff"
     bordercolor="#e7e7e7"
     borderopacity="1"
     inkscape:pageopacity="0.0"
     inkscape:pageshadow="2"
     inkscape:zoom="16.869941"
     inkscape:cx="-8.8715122"
     inkscape:cy="13.751458"
     inkscape:document-units="px"
     inkscape:current-layer="layer1"
     showgrid="true"
     inkscape:showpageshadow="false"
     showguides="true"
     inkscape:guide-bbox="true"
     inkscape:window-width="1920"
     inkscape:window-height="1028"
     inkscape:window-x="0"
     inkscape:window-y="25"
     inkscape:window-maximized="1"
     inkscape:snap-global="true">
    <sodipodi:guide
       orientation="1,0"
       position="0,112"
       id="guide2383" />
    <sodipodi:guide
       orientation="0,1"
       position="78.156291,0"
       id="guide2389" />
    <inkscape:grid
       type="xygrid"
       id="grid3672"
       visible="true"
       enabled="true" />
    <sodipodi:guide
       orientation="1,0"
       position="22.008699,4.1542523"
       id="guide2950" />
    <sodipodi:guide
       orientation="0,1"
       position="11.22532,22.008699"
       id="guide2952" />
  </sodipodi:namedview>
  <metadata
     id="metadata7">
    <rdf:RDF>
      <cc:Work
         rdf:about="">
        <dc:format>image/svg+xml</dc:format>
        <dc:type
           rdf:resource="http://purl.org/dc/dcmitype/StillImage" />
        <dc:title></dc:title>
      </cc:Work>
    </rdf:RDF>
  </metadata>
  <g
     inkscape:label="Calque 1"
     inkscape:groupmode="layer"
     id="layer1">
    <path
       style="fill:#bebebe;fill-opacity:1;stroke:none"
       d="M 8 0 C 6.369353 0 5.0625 1.2280625 5.0625 2.75 C 5.0661773 2.9120664 5.078286 3.1463239 5.09375 3.34375 C 4.8149004 3.462099 4.794552 4.0048008 5.03125 4.5625 C 5.125113 4.7836566 5.2446605 4.9534677 5.375 5.09375 C 5.4066696 5.2504866 5.39836 5.3208522 5.4375 5.5 C 5.634337 6.0905097 7.015409 7.6781634 7.03125 7.875 C 7.412983 8.0718365 8.793826 8.0718365 9.1875 7.875 C 9.1875 7.6781634 10.365664 6.0905097 10.5625 5.5 C 10.606219 5.3151913 10.622133 5.1903792 10.65625 5.03125 C 10.764832 4.8997227 10.857512 4.7509639 10.9375 4.5625 C 11.162363 4.0326858 11.147829 3.5269131 10.90625 3.375 C 10.920493 3.1615298 10.931227 2.9343906 10.9375 2.75 C 10.9375 1.2280625 9.630648 0 8 0 z M 6.21875 8.40625 C 4.9852888 9.2769287 2.2770386 9.6812809 2.28125 10.625 L 1.90625 13.1875 C 1.90625 13.706513 2.6812555 14.175993 3.90625 14.5 L 4.09375 15.21875 A 0.42874928 0.42874928 0 0 0 4.375 15.5 C 4.430336 15.521401 4.4733427 15.549721 4.625 15.59375 C 5.4238904 15.825686 6.6322097 16 8 16 C 9.3677903 16 10.60736 15.825686 11.40625 15.59375 C 11.557907 15.54972 11.569664 15.521401 11.625 15.5 A 0.42874928 0.42874928 0 0 0 11.90625 15.21875 L 12.125 14.5 C 13.333619 14.176309 14.09375 13.702528 14.09375 13.1875 L 13.71875 10.625 C 13.714419 9.848863 11.21753 9.3437322 9.9375 8.5 A 0.97584188 0.97584188 0 0 1 9.625 8.75 C 9.0200063 9.0524961 8.6082859 9 8.09375 9 C 7.8364821 9 7.587947 9.0004922 7.34375 8.96875 C 7.099553 8.9370078 6.9021562 8.9090264 6.59375 8.75 A 0.97584188 0.97584188 0 0 1 6.21875 8.40625 z "
       id="path3754" />
    <path
       inkscape:connector-curvature="0"
       sodipodi:nodetypes="ccccsccccc"
       style="fill:#000000;fill-opacity:1;stroke:none"
       id="path3935"
       d="m -13.771529,5.9050966 c 0.181174,0.8569201 0.2823,1.5051186 0.135325,2.3620387 -1.145861,0.9506717 -4.076448,1.3778558 -4.072056,2.3620387 l -0.393673,2.558875 c 0,0.978388 2.731928,1.771529 6.101933,1.771529 3.370005,0 6.101933,-0.793141 6.101933,-1.771529 L -6.29174,10.629174 c -0.0047,-0.8423279 -2.952548,-1.377856 -4.084358,-2.3620387 -0.09668,-0.7953524 -0.01972,-1.5666863 0.147627,-2.3620387 l -3.543058,0 z" />
    <path
       transform="matrix(0.34209356,0,0,0.34209356,-8.638748,-12.26548)"
       d="m -9.75,73.09375 c -3.766412,0.121068 -7.468069,1.386362 -11.40625,3.25 a 1.25331,1.25331 0 0 0 -0.6875,1.4375 l 0.625,2.53125 a 1.25331,1.25331 0 0 0 0.78125,0.84375 c 0.161757,0.06256 0.275429,0.183794 0.71875,0.3125 2.335298,0.677989 5.907957,1.15625 9.90625,1.15625 3.9982931,0 7.5709518,-0.478261 9.90625,-1.15625 0.44332111,-0.128707 0.55699247,-0.24994 0.71875,-0.3125 a 1.25331,1.25331 0 0 0 0.78125,-0.8125 L 2.25,78.03125 a 1.25331,1.25331 0 0 0 -0.53125,-1.375 C -2.2051532,74.042333 -5.9835879,72.972682 -9.75,73.09375 z"
       id="path3937"
       style="fill:#000000;fill-opacity:1;stroke:none"
       inkscape:original="M -9.71875 74.34375 C -13.230599 74.456635 -16.76467 75.641953 -20.625 77.46875 L -20 80 C -19.731211 80.103955 -19.729288 80.147142 -19.375 80.25 C -17.218663 80.876033 -13.703662 81.375 -9.8125 81.375 C -5.9213382 81.375 -2.4063369 80.876033 -0.25 80.25 C 0.10428761 80.147142 0.10621054 80.103955 0.375 80 L 1.03125 77.6875 C -2.7172738 75.190412 -6.2069011 74.230865 -9.71875 74.34375 z "
       inkscape:radius="1.2531847"
       sodipodi:type="inkscape:offset" />
    <rect
       transform="matrix(0.9205234,-0.39068744,0.39068744,0.9205234,0,0)"
       ry="1.1810193"
       rx="1.1810193"
       y="-2.754653"
       x="-15.569602"
       height="2.1871843"
       width="1.0935922"
       id="rect3939"
       style="fill:#000000;fill-opacity:1;stroke:none" />
    <rect
       style="fill:#000000;fill-opacity:1;stroke:none"
       id="rect3941"
       width="1.0935922"
       height="2.1871843"
       x="6.5567312"
       y="6.6361833"
       rx="1.1810193"
       ry="1.1810193"
       transform="matrix(-0.9205234,-0.39068744,-0.39068744,0.9205234,0,0)" />
    <path
       inkscape:connector-curvature="0"
       sodipodi:nodetypes="cccccccc"
       style="fill:#000000;fill-opacity:1;stroke:none"
       id="path3943"
       d="m -12,0 c -1.630647,0 -2.952548,1.2337743 -2.952548,2.7557118 0.01278,0.5632387 0.06085,1.232346 0.393673,2.7557117 0.196837,0.5905097 1.558851,2.1652021 1.574692,2.3620387 0.381733,0.1968365 1.771529,0.1968365 2.165203,0 0,-0.1968366 1.181019,-1.771529 1.377855,-2.3620387 C -9.066594,3.9281919 -9.06754,3.3462214 -9.047452,2.7557118 -9.047452,1.2337743 -10.369352,0 -12,0 z" />
  </g>
</svg>
